<svg xmlns="http://www.w3.org/2000/svg" width="2861" height="259" viewBox="0 0 2861 259">
  <defs>
    <style>
      .cls-1 {
        fill: #6e6058;
        fill-rule: evenodd;
      }
    </style>
  </defs>
  <path id="Christa_Westerink" data-name="Christa Westerink" class="cls-1" d="M190.082,253.737a207.42,207.42,0,0,0,38.775-12.92l1.237-51.319h-4.125l-18.15,35.17a85.851,85.851,0,0,1-7.425,12.022,25.163,25.163,0,0,1-11.962,8.434,87.656,87.656,0,0,1-15.675,4.845q-7.842,1.614-21.038,1.615-23.928,0-43.106-10.946T78.294,204.033q-11.138-25.654-11.137-69.8,0-44.494,11.756-70.16t31.35-36.785a86.6,86.6,0,0,1,43.519-11.125,75.285,75.285,0,0,1,15.056,1.256,72.158,72.158,0,0,1,12.169,3.768,31.5,31.5,0,0,1,12.375,8.433A84.456,84.456,0,0,1,202.457,42l20.625,28.71h4.125l-1.65-44.142a184.54,184.54,0,0,0-37.125-12.919,189,189,0,0,0-43.313-4.665,191.347,191.347,0,0,0-55.481,7.9,138.038,138.038,0,0,0-46.2,23.686A113,113,0,0,0,11.882,79.682Q0.328,103.015.332,133.873q0,40.559,18.975,68.545t51.356,42.167q32.378,14.173,72.394,14.176A206.355,206.355,0,0,0,190.082,253.737Zm132-1.436v-3.588l-3.3-.718q-14.85-3.945-14.85-17.944V105.163a76.77,76.77,0,0,1,21.863-10.587,72.882,72.882,0,0,1,19.8-3.05q14.019,0,19.594,5.383t5.568,19.739V229.333q0,14-14.85,18.3l-4.95,1.077V252.3H447.48v-3.588l-3.3-1.077q-8.256-2.154-11.55-6.46t-3.3-11.484v-101.2q0-27.63-15.881-40.911T370.755,74.3a90.664,90.664,0,0,0-36.918,7.357,170.928,170.928,0,0,0-31.144,17.764V54.561l1.65-50.6-6.6-3.23-72.6,15.432V19.75l6.187,1.436q8.247,1.8,11.138,5.383t2.887,11.125V229.333q0,13.644-14.85,17.944l-4.95,1.436V252.3H322.08Zm223.57,0v-3.588l-13.2-3.23q-14.445-3.584-14.438-17.944V127.413a87.469,87.469,0,0,1,5.156-10.228,27.865,27.865,0,0,1,6.807-7.716q4.535-5.022,9.9-4.486t9.487,5.563l0.825,0.717q13.2,15.073,30.525,15.073a29.153,29.153,0,0,0,19.181-6.639q8.044-6.636,8.044-18.841a24.666,24.666,0,0,0-8.25-19.02Q591.431,74.3,575.762,74.3a52.1,52.1,0,0,0-22.481,5.383A84.177,84.177,0,0,0,532.656,93.5,76.516,76.516,0,0,0,517.6,111.981V109.11l-3.713-30.863-4.125-3.589-70.95,20.815v3.589L445,100.5q8.247,1.439,11.344,5.2t3.093,11.663V229.692q0,6.822-3.093,11.125T445,247.277l-6.188,1.436V252.3H545.65ZM668.985,47.922q9.484-7.713,9.487-19.559a24.014,24.014,0,0,0-9.487-19.738q-9.494-7.536-23.513-7.536T621.754,8.625a23.818,23.818,0,0,0-9.694,19.738q0,11.843,9.694,19.559t23.718,7.716Q659.491,55.638,668.985,47.922ZM693.322,252.3v-3.588l-4.125-1.077q-7.84-2.154-10.931-6.46t-3.094-11.484V129.207l1.238-50.96-4.125-3.589L596.8,95.832v3.589l5.775,1.076q8.247,1.439,11.344,5.2t3.094,11.3V229.333q0,7.184-3.094,11.484t-11.344,6.46l-5.775,1.436V252.3h96.525ZM824.7,241.894q23.716-15.788,23.719-41.988,0-19.38-12.788-33.2T793.147,145l-18.563-4.666q-20.631-6.1-31.143-13.278t-10.519-19.379q0-12.558,12.375-19.38a53.9,53.9,0,0,1,26.4-6.819q15.257,0,22.894,4.845t15.468,16.687L824.5,125.26h4.125L831.1,86.5a130.553,130.553,0,0,0-27.431-9.151,144.712,144.712,0,0,0-30.319-3.05q-40.015,0-61.463,16.508T690.434,131a44.126,44.126,0,0,0,14.438,33.375q14.435,13.642,39.6,20.1l17.325,4.665q23.512,6.106,32.175,13.638a24.514,24.514,0,0,1,8.662,19.379q0,12.92-12.168,20.635T758.5,250.507q-16.918,0-27.844-7t-20.006-21.353l-14.025-21.533H692.5l-0.413,42.706a184.038,184.038,0,0,0,29.7,10.228,146.5,146.5,0,0,0,36.3,4.127Q800.981,257.684,824.7,241.894Zm130.552,8.613a57.755,57.755,0,0,0,22.688-19.379l-4.125-3.589a65.877,65.877,0,0,1-13.2,10.228,30.252,30.252,0,0,1-15.263,3.768q-9.9,0-16.294-6.46t-6.394-19.02V86.86H969.28V79.682h-46.2l1.238-50.242h-4.126L886.367,62.1a88.959,88.959,0,0,1-18.356,12.561,85.917,85.917,0,0,1-22.068,7.178l-9.9,1.435V86.86h28.463V209.6q0,25.125,14.644,36.6t41.043,11.484Q940.814,257.684,955.255,250.507Zm104.565-.9a166.847,166.847,0,0,0,25.37-19.559,34.076,34.076,0,0,0,13.82,19.559q10.515,7.351,28.67,7.357,16.9,0,26.19-4.666a59.024,59.024,0,0,0,17.12-13.278l-3.71-2.871h-9.08q-17.325,0-17.32-16.149V140.691q0-35.166-20.01-50.781T1064.15,74.3a167.367,167.367,0,0,0-42.07,5.024q-19.4,5.03-31.147,15.073t-11.756,24.763q0,9.688,7.012,15.431t17.741,5.742q11.535,0,19.38-7.177t8.67-22.609l0.82-3.948q1.65-13.634,7.43-19.2,5.76-5.56,15.67-5.562,14.43,0,21.25,9.869,6.8,9.875,6.8,34.272v28.351q-9.075,1.439-17.32,2.692-8.265,1.261-14.85,2.333-42.495,7.182-62.291,21.353t-19.8,31.042q0,22.257,16.294,34.094t40.217,11.842Q1046.825,257.684,1059.82,249.61Zm-27.43-21.174q-7.845-7.352-7.84-22.071,0-17.226,11.35-27.454t30.31-14.534q5.37-.716,9.49-1.436t8.25-1.435V221.8a111.5,111.5,0,0,1-17.12,10.587,35.719,35.719,0,0,1-15.47,3.409A26.7,26.7,0,0,1,1032.39,228.436Zm295.35,24.942,63.52-168.671,61.88,168.671h28.46l68.47-209.583a59.178,59.178,0,0,1,5.78-13.278q3.3-5.383,11.55-7.9l10.72-3.589V15.444h-57.33v3.589l8.66,2.512q9.48,2.877,10.31,9.331t-2.06,15.073L1488.2,195.6,1435.81,43.077q-2.895-7.536-1.86-12.381t9.29-7.357l12.78-4.306V15.444H1352.49v3.589l9.07,4.307q5.775,2.515,8.25,6.46a68.8,68.8,0,0,1,5.36,11.484l9.49,25.48L1335.99,192.01,1291.02,42.718q-2.88-8.251.42-12.919,3.285-4.66,12.78-7.9l8.67-2.871V15.444H1203.57v3.589l4.95,1.794q8.25,3.23,11.55,7t6.19,12.022l73.01,213.531h28.47ZM1580.39,85.066a95.6,95.6,0,0,0-38.16,31.4q-14.85,20.642-14.85,50.063,0,28.355,12.79,48.807a83.669,83.669,0,0,0,35.48,31.4q22.68,10.942,51.97,10.945,29.7,0,50.95-11.125A89.008,89.008,0,0,0,1712.6,215.7l-4.13-3.23a80.543,80.543,0,0,1-23.92,16.867q-12.795,5.745-33.42,5.742-30.525,0-45.99-17.046t-15.88-55.805h122.92a28.038,28.038,0,0,0,1.65-7.357c0.27-2.748.42-5.439,0.42-8.075q0-20.809-10.11-37.144T1675.06,83.81q-18.975-9.5-45.79-9.51A115.2,115.2,0,0,0,1580.39,85.066ZM1656.5,98.7q7.425,17.226,3.3,56.343h-70.54q0.4-29.068,5.16-45.039,4.725-15.964,13.2-22.25,8.445-6.275,20.41-6.28Q1649.075,81.477,1656.5,98.7Zm191.6,143.191q23.715-15.788,23.72-41.988,0-19.38-12.79-33.2T1816.54,145l-18.56-4.666q-20.625-6.1-31.14-13.278t-10.52-19.379q0-12.558,12.37-19.38a53.91,53.91,0,0,1,26.4-6.819q15.255,0,22.9,4.845,7.62,4.845,15.46,16.687l14.44,22.251h4.13l2.47-38.759a130.41,130.41,0,0,0-27.43-9.151,144.7,144.7,0,0,0-30.32-3.05q-40.02,0-61.46,16.508T1713.83,131a44.124,44.124,0,0,0,14.44,33.375q14.43,13.642,39.6,20.1l17.32,4.665q23.52,6.106,32.18,13.638a24.528,24.528,0,0,1,8.66,19.379q0,12.92-12.17,20.635t-31.97,7.716q-16.92,0-27.84-7-10.935-7-20.01-21.353l-14.02-21.533h-4.13l-0.41,42.706a183.7,183.7,0,0,0,29.7,10.228,146.454,146.454,0,0,0,36.3,4.127Q1824.38,257.684,1848.1,241.894Zm130.55,8.613a57.817,57.817,0,0,0,22.69-19.379l-4.13-3.589a65.653,65.653,0,0,1-13.2,10.228,30.246,30.246,0,0,1-15.26,3.768q-9.9,0-16.29-6.46t-6.4-19.02V86.86h46.61V79.682h-46.2l1.24-50.242h-4.12L1909.76,62.1a89.088,89.088,0,0,1-18.35,12.561,85.972,85.972,0,0,1-22.07,7.178l-9.9,1.435V86.86h28.46V209.6q0,25.125,14.64,36.6t41.05,11.484Q1964.215,257.684,1978.65,250.507Zm64.14-165.442a95.569,95.569,0,0,0-38.15,31.4q-14.85,20.642-14.85,50.063,0,28.355,12.79,48.807a83.642,83.642,0,0,0,35.47,31.4q22.68,10.942,51.98,10.945,29.7,0,50.94-11.125A89.008,89.008,0,0,0,2175,215.7l-4.12-3.23a80.709,80.709,0,0,1-23.93,16.867q-12.795,5.745-33.41,5.742-30.54,0-46-17.046t-15.88-55.805h122.93a28.86,28.86,0,0,0,1.65-7.357q0.405-4.122.41-8.075,0-20.809-10.11-37.144T2137.46,83.81q-18.975-9.5-45.78-9.51A115.243,115.243,0,0,0,2042.79,85.066ZM2118.9,98.7q7.425,17.226,3.3,56.343h-70.54q0.4-29.068,5.16-45.039,4.74-15.964,13.2-22.25t20.42-6.28Q2111.47,81.477,2118.9,98.7Zm160.46,153.6v-3.588l-13.2-3.23q-14.445-3.584-14.44-17.944V127.413a87.615,87.615,0,0,1,5.16-10.228,27.776,27.776,0,0,1,6.8-7.716q4.545-5.022,9.9-4.486t9.49,5.563l0.83,0.717q13.185,15.073,30.52,15.073a29.137,29.137,0,0,0,19.18-6.639q8.04-6.636,8.05-18.841a24.692,24.692,0,0,0-8.25-19.02q-8.265-7.536-23.93-7.536a52.113,52.113,0,0,0-22.48,5.383A84.186,84.186,0,0,0,2266.36,93.5a76.7,76.7,0,0,0-15.05,18.482V109.11l-3.71-30.863-4.13-3.589-70.95,20.815v3.589l6.19,1.435q8.25,1.439,11.34,5.2t3.1,11.663V229.692q0,6.822-3.1,11.125t-11.34,6.46l-6.19,1.436V252.3h106.84ZM2402.69,47.922q9.495-7.713,9.49-19.559a24,24,0,0,0-9.49-19.738q-9.495-7.536-23.51-7.536t-23.72,7.536a23.828,23.828,0,0,0-9.69,19.738q0,11.843,9.69,19.559t23.72,7.716Q2393.205,55.638,2402.69,47.922ZM2427.03,252.3v-3.588l-4.12-1.077q-7.845-2.154-10.94-6.46t-3.09-11.484V129.207l1.24-50.96-4.13-3.589-75.48,21.174v3.589l5.77,1.076q8.25,1.439,11.34,5.2,3.105,3.768,3.1,11.3V229.333q0,7.184-3.1,11.484t-11.34,6.46l-5.77,1.436V252.3h96.52Zm90.34,0v-3.588l-3.71-1.077q-14.445-3.583-14.44-17.585V108.034q21.435-15.788,39.6-15.791,26.385,0,26.4,22.968V229.692q0,13.642-14.44,17.585l-5.36,1.436V252.3h97.35v-3.588l-3.71-1.077q-15.69-3.583-15.68-17.585V126.7q0-26.554-14.64-39.476T2566.87,74.3a97.1,97.1,0,0,0-35.89,7.177,133.762,133.762,0,0,0-32.59,18.3l-3.3-21.532-4.12-3.589-70.54,20.815v3.589l6.19,1.435q8.25,1.439,11.14,5.2t2.88,11.663V229.692q0,14-14.43,17.585l-5.78,1.436V252.3h96.94Zm216.14,0v-3.588l-5.77-1.436q-13.62-3.583-13.61-17.944V54.2l1.23-50.243-4.95-3.23-75.48,15.432V19.75l5.36,1.077c5.5,1.436,9.34,3.353,11.55,5.742s3.3,5.983,3.3,10.766v192q0,13.644-14.03,17.585l-6.18,1.795V252.3h98.58Zm127.05,0v-3.588l-1.65-.718a49.9,49.9,0,0,1-14.85-7.178,75.581,75.581,0,0,1-12.37-12.2l-73.84-89.36,46.2-37.682a150.8,150.8,0,0,1,13.41-9.51,57.972,57.972,0,0,1,14.64-5.921l12.38-2.871V79.682h-61.47v3.589l7.02,1.794q8.235,2.153,7.21,7t-6.39,9.151l-76.31,61.368,73.42,89.718h72.6Z"/>
</svg>
